<mxfile host="app.diagrams.net" modified="2023-08-03T17:25:37.591Z" agent="Mozilla/5.0 (X11; Linux x86_64; rv:109.0) Gecko/20100101 Firefox/113.0" etag="f1b5VijlsbsUM4mhpnHG" version="21.6.6" type="github">
  <diagram id="C5RBs43oDa-KdzZeNtuy" name="Page-1">
    <mxGraphModel dx="1699" dy="689" grid="1" gridSize="10" guides="1" tooltips="1" connect="1" arrows="1" fold="1" page="1" pageScale="1" pageWidth="827" pageHeight="1169" background="#99CCFF" math="0" shadow="0">
      <root>
        <mxCell id="WIyWlLk6GJQsqaUBKTNV-0" />
        <mxCell id="WIyWlLk6GJQsqaUBKTNV-1" parent="WIyWlLk6GJQsqaUBKTNV-0" />
        <mxCell id="XkFU5UtLdhDvtAjmYBfF-36" style="edgeStyle=orthogonalEdgeStyle;rounded=0;orthogonalLoop=1;jettySize=auto;html=1;exitX=1;exitY=0.5;exitDx=0;exitDy=0;entryX=0;entryY=0.5;entryDx=0;entryDy=0;" edge="1" parent="WIyWlLk6GJQsqaUBKTNV-1" source="WIyWlLk6GJQsqaUBKTNV-3" target="XkFU5UtLdhDvtAjmYBfF-1">
          <mxGeometry relative="1" as="geometry" />
        </mxCell>
        <mxCell id="XkFU5UtLdhDvtAjmYBfF-38" style="edgeStyle=orthogonalEdgeStyle;rounded=0;orthogonalLoop=1;jettySize=auto;html=1;exitX=0;exitY=0.5;exitDx=0;exitDy=0;entryX=0.066;entryY=-0.019;entryDx=0;entryDy=0;entryPerimeter=0;" edge="1" parent="WIyWlLk6GJQsqaUBKTNV-1" source="WIyWlLk6GJQsqaUBKTNV-3" target="XkFU5UtLdhDvtAjmYBfF-0">
          <mxGeometry relative="1" as="geometry" />
        </mxCell>
        <mxCell id="XkFU5UtLdhDvtAjmYBfF-40" style="edgeStyle=orthogonalEdgeStyle;rounded=0;orthogonalLoop=1;jettySize=auto;html=1;exitX=0.75;exitY=1;exitDx=0;exitDy=0;entryX=0;entryY=0.25;entryDx=0;entryDy=0;" edge="1" parent="WIyWlLk6GJQsqaUBKTNV-1" source="WIyWlLk6GJQsqaUBKTNV-3" target="XkFU5UtLdhDvtAjmYBfF-3">
          <mxGeometry relative="1" as="geometry">
            <Array as="points">
              <mxPoint x="133" y="130" />
              <mxPoint x="260" y="130" />
              <mxPoint x="260" y="450" />
            </Array>
          </mxGeometry>
        </mxCell>
        <mxCell id="XkFU5UtLdhDvtAjmYBfF-41" style="edgeStyle=orthogonalEdgeStyle;rounded=0;orthogonalLoop=1;jettySize=auto;html=1;exitX=1;exitY=0.75;exitDx=0;exitDy=0;" edge="1" parent="WIyWlLk6GJQsqaUBKTNV-1" source="WIyWlLk6GJQsqaUBKTNV-3" target="XkFU5UtLdhDvtAjmYBfF-2">
          <mxGeometry relative="1" as="geometry">
            <Array as="points">
              <mxPoint x="160" y="100" />
              <mxPoint x="440" y="100" />
            </Array>
          </mxGeometry>
        </mxCell>
        <mxCell id="WIyWlLk6GJQsqaUBKTNV-3" value="Modelo JSON" style="rounded=1;whiteSpace=wrap;html=1;fontSize=18;glass=0;strokeWidth=1;shadow=1;fillColor=#d5e8d4;strokeColor=#82b366;fontFamily=Garamond;fontStyle=1" parent="WIyWlLk6GJQsqaUBKTNV-1" vertex="1">
          <mxGeometry x="50" y="20" width="130" height="50" as="geometry" />
        </mxCell>
        <mxCell id="XkFU5UtLdhDvtAjmYBfF-35" style="edgeStyle=orthogonalEdgeStyle;rounded=0;orthogonalLoop=1;jettySize=auto;html=1;exitX=0.5;exitY=1;exitDx=0;exitDy=0;" edge="1" parent="WIyWlLk6GJQsqaUBKTNV-1" source="XkFU5UtLdhDvtAjmYBfF-0" target="XkFU5UtLdhDvtAjmYBfF-34">
          <mxGeometry relative="1" as="geometry" />
        </mxCell>
        <mxCell id="XkFU5UtLdhDvtAjmYBfF-0" value="&lt;div align=&quot;left&quot;&gt;Generar SQL&lt;/div&gt;&lt;div align=&quot;left&quot;&gt;&lt;ul&gt;&lt;li&gt;&lt;div&gt;Create Table&lt;/div&gt;&lt;/li&gt;&lt;li&gt;&lt;div&gt;Create Relations&lt;/div&gt;&lt;/li&gt;&lt;li&gt;&lt;div&gt;Create Indexes&lt;/div&gt;&lt;/li&gt;&lt;li&gt;Create Sql List data&lt;/li&gt;&lt;li&gt;Create Sql create data&lt;/li&gt;&lt;li&gt;Create Sql update data&lt;/li&gt;&lt;li&gt;Create sql delete data&lt;/li&gt;&lt;li&gt;Create viwes for list&lt;br&gt;&lt;/li&gt;&lt;/ul&gt;&lt;/div&gt;" style="shape=process;whiteSpace=wrap;html=1;backgroundOutline=1;align=left;shadow=1;sketch=1;curveFitting=1;jiggle=2;" vertex="1" parent="WIyWlLk6GJQsqaUBKTNV-1">
          <mxGeometry x="10" y="220" width="230" height="170" as="geometry" />
        </mxCell>
        <mxCell id="XkFU5UtLdhDvtAjmYBfF-31" style="edgeStyle=orthogonalEdgeStyle;rounded=0;orthogonalLoop=1;jettySize=auto;html=1;exitX=1;exitY=0.5;exitDx=0;exitDy=0;" edge="1" parent="WIyWlLk6GJQsqaUBKTNV-1" source="XkFU5UtLdhDvtAjmYBfF-1" target="XkFU5UtLdhDvtAjmYBfF-6">
          <mxGeometry relative="1" as="geometry" />
        </mxCell>
        <mxCell id="XkFU5UtLdhDvtAjmYBfF-1" value="&lt;div align=&quot;left&quot;&gt;Generar Entidades&lt;/div&gt;" style="shape=process;whiteSpace=wrap;html=1;backgroundOutline=1;align=left;shadow=1;sketch=1;curveFitting=1;jiggle=2;" vertex="1" parent="WIyWlLk6GJQsqaUBKTNV-1">
          <mxGeometry x="274" y="40" width="280" height="40" as="geometry" />
        </mxCell>
        <mxCell id="XkFU5UtLdhDvtAjmYBfF-28" style="edgeStyle=orthogonalEdgeStyle;rounded=0;orthogonalLoop=1;jettySize=auto;html=1;exitX=1;exitY=0.5;exitDx=0;exitDy=0;" edge="1" parent="WIyWlLk6GJQsqaUBKTNV-1" source="XkFU5UtLdhDvtAjmYBfF-2" target="XkFU5UtLdhDvtAjmYBfF-10">
          <mxGeometry relative="1" as="geometry" />
        </mxCell>
        <mxCell id="XkFU5UtLdhDvtAjmYBfF-2" value="&lt;div&gt;Generar Servicio&lt;/div&gt;&lt;div&gt;&lt;ul&gt;&lt;li&gt;Construir un modelo de representaciÃ³n&lt;br&gt;&lt;/li&gt;&lt;li&gt;Conversion MultiMap a consulta sql para ejecutarse como condiciones y adecuado a su modelo&lt;br&gt;&lt;/li&gt;&lt;li&gt;Conversion de Base de datos a JSON&lt;/li&gt;&lt;li&gt;Conversion de Base de datos a Lista entidates List&amp;lt;DC&amp;gt;&lt;/li&gt;&lt;li&gt;Conversion a Excel&lt;/li&gt;&lt;li&gt;Conversion de Json a Entidad Java &lt;br&gt;&lt;/li&gt;&lt;li&gt;Sql for Create, Rwad, Update, Delete&lt;br&gt;&lt;/li&gt;&lt;/ul&gt;&lt;/div&gt;" style="shape=process;whiteSpace=wrap;html=1;backgroundOutline=1;align=left;rounded=0;sketch=1;curveFitting=1;jiggle=2;shadow=1;" vertex="1" parent="WIyWlLk6GJQsqaUBKTNV-1">
          <mxGeometry x="290" y="130" width="280" height="250" as="geometry" />
        </mxCell>
        <mxCell id="XkFU5UtLdhDvtAjmYBfF-33" style="edgeStyle=orthogonalEdgeStyle;rounded=0;orthogonalLoop=1;jettySize=auto;html=1;exitX=1;exitY=0.5;exitDx=0;exitDy=0;" edge="1" parent="WIyWlLk6GJQsqaUBKTNV-1" source="XkFU5UtLdhDvtAjmYBfF-3" target="XkFU5UtLdhDvtAjmYBfF-14">
          <mxGeometry relative="1" as="geometry" />
        </mxCell>
        <mxCell id="XkFU5UtLdhDvtAjmYBfF-3" value="Generar MapStores" style="shape=process;whiteSpace=wrap;html=1;backgroundOutline=1;align=left;shadow=1;sketch=1;curveFitting=1;jiggle=2;glass=0;" vertex="1" parent="WIyWlLk6GJQsqaUBKTNV-1">
          <mxGeometry x="313" y="440" width="187" height="40" as="geometry" />
        </mxCell>
        <mxCell id="XkFU5UtLdhDvtAjmYBfF-6" value="Entidad" style="swimlane;fontStyle=1;align=center;verticalAlign=top;childLayout=stackLayout;horizontal=1;startSize=26;horizontalStack=0;resizeParent=1;resizeParentMax=0;resizeLast=0;collapsible=1;marginBottom=0;whiteSpace=wrap;html=1;fillColor=#fad7ac;strokeColor=#b46504;" vertex="1" parent="WIyWlLk6GJQsqaUBKTNV-1">
          <mxGeometry x="640" y="40" width="160" height="86" as="geometry" />
        </mxCell>
        <mxCell id="XkFU5UtLdhDvtAjmYBfF-7" value="+ pkey: String" style="text;align=left;verticalAlign=top;spacingLeft=4;spacingRight=4;overflow=hidden;rotatable=0;points=[[0,0.5],[1,0.5]];portConstraint=eastwest;whiteSpace=wrap;html=1;fillColor=default;" vertex="1" parent="XkFU5UtLdhDvtAjmYBfF-6">
          <mxGeometry y="26" width="160" height="26" as="geometry" />
        </mxCell>
        <mxCell id="XkFU5UtLdhDvtAjmYBfF-8" value="" style="line;strokeWidth=1;fillColor=none;align=left;verticalAlign=middle;spacingTop=-1;spacingLeft=3;spacingRight=3;rotatable=0;labelPosition=right;points=[];portConstraint=eastwest;strokeColor=inherit;" vertex="1" parent="XkFU5UtLdhDvtAjmYBfF-6">
          <mxGeometry y="52" width="160" height="8" as="geometry" />
        </mxCell>
        <mxCell id="XkFU5UtLdhDvtAjmYBfF-9" value="+ method(type): type" style="text;align=left;verticalAlign=top;spacingLeft=4;spacingRight=4;overflow=hidden;rotatable=0;points=[[0,0.5],[1,0.5]];portConstraint=eastwest;whiteSpace=wrap;html=1;fillColor=default;" vertex="1" parent="XkFU5UtLdhDvtAjmYBfF-6">
          <mxGeometry y="60" width="160" height="26" as="geometry" />
        </mxCell>
        <mxCell id="XkFU5UtLdhDvtAjmYBfF-10" value="Service&amp;lt;Entidad&amp;gt;" style="swimlane;fontStyle=1;align=center;verticalAlign=top;childLayout=stackLayout;horizontal=1;startSize=26;horizontalStack=0;resizeParent=1;resizeParentMax=0;resizeLast=0;collapsible=1;marginBottom=0;whiteSpace=wrap;html=1;fillColor=#fad7ac;strokeColor=#b46504;" vertex="1" parent="WIyWlLk6GJQsqaUBKTNV-1">
          <mxGeometry x="640" y="200" width="160" height="86" as="geometry" />
        </mxCell>
        <mxCell id="XkFU5UtLdhDvtAjmYBfF-11" value="+ field: type" style="text;strokeColor=none;fillColor=default;align=left;verticalAlign=top;spacingLeft=4;spacingRight=4;overflow=hidden;rotatable=0;points=[[0,0.5],[1,0.5]];portConstraint=eastwest;whiteSpace=wrap;html=1;" vertex="1" parent="XkFU5UtLdhDvtAjmYBfF-10">
          <mxGeometry y="26" width="160" height="26" as="geometry" />
        </mxCell>
        <mxCell id="XkFU5UtLdhDvtAjmYBfF-12" value="" style="line;strokeWidth=1;fillColor=none;align=left;verticalAlign=middle;spacingTop=-1;spacingLeft=3;spacingRight=3;rotatable=0;labelPosition=right;points=[];portConstraint=eastwest;strokeColor=inherit;" vertex="1" parent="XkFU5UtLdhDvtAjmYBfF-10">
          <mxGeometry y="52" width="160" height="8" as="geometry" />
        </mxCell>
        <mxCell id="XkFU5UtLdhDvtAjmYBfF-13" value="+ method(type): type" style="text;strokeColor=none;fillColor=default;align=left;verticalAlign=top;spacingLeft=4;spacingRight=4;overflow=hidden;rotatable=0;points=[[0,0.5],[1,0.5]];portConstraint=eastwest;whiteSpace=wrap;html=1;" vertex="1" parent="XkFU5UtLdhDvtAjmYBfF-10">
          <mxGeometry y="60" width="160" height="26" as="geometry" />
        </mxCell>
        <mxCell id="XkFU5UtLdhDvtAjmYBfF-14" value="MapStore&amp;lt;Entidad&amp;gt;" style="swimlane;fontStyle=1;align=center;verticalAlign=top;childLayout=stackLayout;horizontal=1;startSize=26;horizontalStack=0;resizeParent=1;resizeParentMax=0;resizeLast=0;collapsible=1;marginBottom=0;whiteSpace=wrap;html=1;fillColor=#fad7ac;strokeColor=#b46504;" vertex="1" parent="WIyWlLk6GJQsqaUBKTNV-1">
          <mxGeometry x="640" y="410" width="160" height="86" as="geometry" />
        </mxCell>
        <mxCell id="XkFU5UtLdhDvtAjmYBfF-15" value="+ field: type" style="text;strokeColor=none;fillColor=default;align=left;verticalAlign=top;spacingLeft=4;spacingRight=4;overflow=hidden;rotatable=0;points=[[0,0.5],[1,0.5]];portConstraint=eastwest;whiteSpace=wrap;html=1;" vertex="1" parent="XkFU5UtLdhDvtAjmYBfF-14">
          <mxGeometry y="26" width="160" height="26" as="geometry" />
        </mxCell>
        <mxCell id="XkFU5UtLdhDvtAjmYBfF-16" value="" style="line;strokeWidth=1;fillColor=none;align=left;verticalAlign=middle;spacingTop=-1;spacingLeft=3;spacingRight=3;rotatable=0;labelPosition=right;points=[];portConstraint=eastwest;strokeColor=inherit;" vertex="1" parent="XkFU5UtLdhDvtAjmYBfF-14">
          <mxGeometry y="52" width="160" height="8" as="geometry" />
        </mxCell>
        <mxCell id="XkFU5UtLdhDvtAjmYBfF-17" value="+ method(type): type" style="text;strokeColor=none;fillColor=default;align=left;verticalAlign=top;spacingLeft=4;spacingRight=4;overflow=hidden;rotatable=0;points=[[0,0.5],[1,0.5]];portConstraint=eastwest;whiteSpace=wrap;html=1;" vertex="1" parent="XkFU5UtLdhDvtAjmYBfF-14">
          <mxGeometry y="60" width="160" height="26" as="geometry" />
        </mxCell>
        <mxCell id="XkFU5UtLdhDvtAjmYBfF-34" value="" style="sketch=0;outlineConnect=0;dashed=0;verticalLabelPosition=bottom;verticalAlign=top;align=center;html=1;fontSize=17;fontStyle=1;aspect=fixed;pointerEvents=1;shape=mxgraph.aws4.rds_postgresql_instance_alt;shadow=0;fillColor=#6a00ff;fontColor=#ffffff;strokeColor=#3700CC;" vertex="1" parent="WIyWlLk6GJQsqaUBKTNV-1">
          <mxGeometry x="50" y="440" width="138" height="138" as="geometry" />
        </mxCell>
      </root>
    </mxGraphModel>
  </diagram>
</mxfile>
